<?xml version="1.0" encoding="utf-8"?>
<!-- Generator: Adobe Illustrator 26.0.3, SVG Export Plug-In . SVG Version: 6.00 Build 0)  -->
<svg version="1.1" id="Capa_1" xmlns="http://www.w3.org/2000/svg" xmlns:xlink="http://www.w3.org/1999/xlink" x="0px" y="0px"
	 viewBox="0 0 100 100" style="enable-background:new 0 0 100 100;" xml:space="preserve">
<style type="text/css">
	.st0{fill:#036BBF;}
	.st1{fill:#4ABEF1;}
</style>
<g>
	<path class="st0" d="M19,85.3c-5.8-4.8-9.9-10.8-12.7-17.7C-5,39.3,12.7,8.1,42.8,3.4c19.3-3,38.9,6.6,48.3,23.9
		c9.6,17.7,7,38.7-5.7,53.4c-1.4,1.7-2.8,3.4-4.7,4.6c-0.4-0.4-0.6-0.9-0.8-1.4c-1.3-2.6-2.7-5.3-4.6-7.6C70,69.9,63.4,65.8,55,64.6
		c-12.1-1.8-22,2.1-30.1,11.1C22.3,78.5,20.7,81.9,19,85.3z M68.6,37.4c-0.3-10.4-9-17.9-18.4-18C39,19.1,30.9,28.3,31,38.1
		c0.1,11.2,8.8,18.5,18.6,18.8C59.9,57.1,69.1,48.3,68.6,37.4z"/>
	<path class="st1" d="M19,85.3c1.7-3.4,3.3-6.8,5.9-9.6c8.1-9,18-12.9,30.1-11.1c8.3,1.3,15,5.4,20.3,11.8c1.9,2.3,3.2,4.9,4.6,7.6
		c0.2,0.5,0.4,1,0.8,1.4c-3.2,3.2-6.9,5.5-11,7.3c-13.6,6.2-27.2,5.9-40.6-0.4C25.4,90.5,21.8,88.4,19,85.3z"/>
	<path class="st1" d="M68.6,37.4c0.5,10.9-8.7,19.7-19,19.5c-9.8-0.2-18.5-7.6-18.6-18.8c-0.1-9.8,8-19,19.2-18.7
		C59.6,19.5,68.3,27,68.6,37.4z"/>
</g>
</svg>
